<svg xmlns="http://www.w3.org/2000/svg" width="183" height="190" viewBox="0 0 183 190" fill="none"><g clip-path="url(#clip0_28_344)"><path d="M0.143879 0.028377C61.0808 -0.0182389 121.992 0.00662291 182.929 0.00662291C182.999 18.6747 182.835 37.3428 182.999 56.0109C146.653 56.0855 114.539 56.2999 77.9977 56.3372C67.7075 56.185 57.575 55.1718 52.1316 63.889C46.5463 73.5851 49.0013 83.2346 49.1496 95.911C49.2569 104.376 43.4223 111.456 35.4009 111.854C23.6401 112.506 11.8321 111.947 0.0681458 111.993C0.165968 74.679 0.00187912 37.3428 0.143879 0.028377Z" fill="white"></path><path d="M71.609 91.5038C72.4136 84.0701 79.7976 77.9386 87.3931 78.4762C106.232 78.4079 132.29 78.498 151.151 78.4545C151.056 97.2158 151.22 115.977 151.056 134.738C127.036 134.623 95.8184 134.67 71.8236 134.692C71.9182 153.105 71.7762 171.54 71.9403 189.95C47.9676 189.997 23.9948 190.044 0.0220889 189.929C0.164089 171.307 0.138844 152.707 0 134.111C18.176 133.949 36.3741 134.226 54.5469 133.971C62.6157 133.902 70.2616 127.563 71.0883 119.545C71.7257 110.2 70.5929 100.805 71.609 91.5069V91.5038Z" fill="white"></path></g><defs><clipPath id="clip0_28_344"><rect width="183" height="190" fill="white"></rect></clipPath></defs></svg>